<?xml version="1.0" encoding="UTF-8"?>
<!DOCTYPE svg
PUBLIC "-//W3C//DTD SVG 1.1//EN"
       "http://www.w3.org/Graphics/SVG/1.1/DTD/svg11.dtd">
<svg viewBox="68 24 796 615" width="728px" height="591px" xmlns="http://www.w3.org/2000/svg" version="1.1">
   <line x1="315" y1="570" x2="325" y2="570" style="stroke:#c00;stroke-width:1;"/>
   <line x1="295" y1="508" x2="305" y2="508" style="stroke:#c00;stroke-width:1;"/>
   <line x1="325" y1="570" x2="295" y2="508" style="stroke:#c00;stroke-width:1;"/>
   <line x1="322.5" y1="570" x2="318.96446609407" y2="573.53553390593" style="stroke:#c00;stroke-width:2;"/>
   <line x1="322.5" y1="570" x2="318.96446609407" y2="566.46446609407" style="stroke:#c00;stroke-width:2;"/>
   <line x1="300" y1="508" x2="296.46446609407" y2="511.53553390593" style="stroke:#c00;stroke-width:2;"/>
   <line x1="300" y1="508" x2="296.46446609407" y2="504.46446609407" style="stroke:#c00;stroke-width:2;"/>
   <line x1="216" y1="590" x2="206" y2="590" style="stroke:#0b0;stroke-width:1;"/>
   <line x1="236" y1="69" x2="226" y2="69" style="stroke:#0b0;stroke-width:1;"/>
   <line x1="206" y1="590" x2="236" y2="69" style="stroke:#0b0;stroke-width:1;"/>
   <line x1="208.5" y1="590" x2="212.03553390593" y2="593.53553390593" style="stroke:#0b0;stroke-width:2;"/>
   <line x1="208.5" y1="590" x2="212.03553390593" y2="586.46446609407" style="stroke:#0b0;stroke-width:2;"/>
   <line x1="231" y1="69" x2="234.53553390593" y2="72.535533905933" style="stroke:#0b0;stroke-width:2;"/>
   <line x1="231" y1="69" x2="234.53553390593" y2="65.464466094067" style="stroke:#0b0;stroke-width:2;"/>
   <line x1="662" y1="118" x2="652" y2="118" style="stroke:#0bf;stroke-width:1;"/>
   <line x1="236" y1="69" x2="226" y2="69" style="stroke:#0bf;stroke-width:1;"/>
   <line x1="652" y1="118" x2="236" y2="69" style="stroke:#0bf;stroke-width:1;"/>
   <line x1="654.5" y1="118" x2="658.03553390593" y2="121.53553390593" style="stroke:#0bf;stroke-width:2;"/>
   <line x1="654.5" y1="118" x2="658.03553390593" y2="114.46446609407" style="stroke:#0bf;stroke-width:2;"/>
   <line x1="231" y1="69" x2="234.53553390593" y2="72.535533905933" style="stroke:#0bf;stroke-width:2;"/>
   <line x1="231" y1="69" x2="234.53553390593" y2="65.464466094067" style="stroke:#0bf;stroke-width:2;"/>
   <line x1="662" y1="138" x2="652" y2="138" style="stroke:#333;stroke-width:1;"/>
   <line x1="650" y1="464" x2="640" y2="464" style="stroke:#333;stroke-width:1;"/>
   <line x1="652" y1="138" x2="650" y2="464" style="stroke:#333;stroke-width:1;"/>
   <line x1="654.5" y1="138" x2="658.03553390593" y2="141.53553390593" style="stroke:#333;stroke-width:2;"/>
   <line x1="654.5" y1="138" x2="658.03553390593" y2="134.46446609407" style="stroke:#333;stroke-width:2;"/>
   <line x1="645" y1="464" x2="648.53553390593" y2="467.53553390593" style="stroke:#333;stroke-width:2;"/>
   <line x1="645" y1="464" x2="648.53553390593" y2="460.46446609407" style="stroke:#333;stroke-width:2;"/>
   <line x1="276" y1="225" x2="266" y2="225" style="stroke:#bbb;stroke-width:1;"/>
   <line x1="236" y1="69" x2="226" y2="69" style="stroke:#bbb;stroke-width:1;"/>
   <line x1="266" y1="225" x2="236" y2="69" style="stroke:#bbb;stroke-width:1;"/>
   <line x1="268.5" y1="225" x2="272.03553390593" y2="228.53553390593" style="stroke:#bbb;stroke-width:2;"/>
   <line x1="268.5" y1="225" x2="272.03553390593" y2="221.46446609407" style="stroke:#bbb;stroke-width:2;"/>
   <line x1="231" y1="69" x2="234.53553390593" y2="72.535533905933" style="stroke:#bbb;stroke-width:2;"/>
   <line x1="231" y1="69" x2="234.53553390593" y2="65.464466094067" style="stroke:#bbb;stroke-width:2;"/>
   <line x1="407" y1="245" x2="417" y2="245" style="stroke:#0bf;stroke-width:1;"/>
   <line x1="633" y1="355" x2="643" y2="355" style="stroke:#0bf;stroke-width:1;"/>
   <line x1="417" y1="245" x2="633" y2="355" style="stroke:#0bf;stroke-width:1;"/>
   <line x1="414.5" y1="245" x2="410.96446609407" y2="248.53553390593" style="stroke:#0bf;stroke-width:2;"/>
   <line x1="414.5" y1="245" x2="410.96446609407" y2="241.46446609407" style="stroke:#0bf;stroke-width:2;"/>
   <line x1="638" y1="355" x2="634.46446609407" y2="358.53553390593" style="stroke:#0bf;stroke-width:2;"/>
   <line x1="638" y1="355" x2="634.46446609407" y2="351.46446609407" style="stroke:#0bf;stroke-width:2;"/>
   <rect width="99" height="20" x="305" y="478" style="fill:#007;stroke:black;"/>
   <text width="99" height="20" x="310" y="492" style="fill:#fff;" font-family="Arial" font-size="16px"> autor</text>
   <rect width="99" height="20" x="305" y="498" style="fill:none;stroke:black;"/>
   <text width="99" height="20" x="310" y="512" style="fill:black;" font-family="Arial" font-size="16px">codigo_autor</text>
   <rect width="99" height="20" x="305" y="518" style="fill:none;stroke:black;"/>
   <text width="99" height="20" x="310" y="532" style="fill:black;" font-family="Arial" font-size="16px">nombre</text>
   <rect width="99" height="20" x="305" y="538" style="fill:none;stroke:black;"/>
   <text width="99" height="20" x="310" y="552" style="fill:black;" font-family="Arial" font-size="16px">apellido</text>
   <rect width="119" height="20" x="521" y="434" style="fill:#007;stroke:black;"/>
   <text width="119" height="20" x="526" y="448" style="fill:#fff;" font-family="Arial" font-size="16px"> editorial</text>
   <rect width="119" height="20" x="521" y="454" style="fill:none;stroke:black;"/>
   <text width="119" height="20" x="526" y="468" style="fill:black;" font-family="Arial" font-size="16px">codigo_editorial</text>
   <rect width="119" height="20" x="521" y="474" style="fill:none;stroke:black;"/>
   <text width="119" height="20" x="526" y="488" style="fill:black;" font-family="Arial" font-size="16px">nombre</text>
   <rect width="129" height="20" x="643" y="325" style="fill:#007;stroke:black;"/>
   <text width="129" height="20" x="648" y="339" style="fill:#fff;" font-family="Arial" font-size="16px"> lector</text>
   <rect width="129" height="20" x="643" y="345" style="fill:#aea;stroke:black;"/>
   <text width="129" height="20" x="648" y="359" style="fill:black;" font-family="Arial" font-size="16px">codigo_lector</text>
   <rect width="129" height="20" x="643" y="365" style="fill:none;stroke:black;"/>
   <text width="129" height="20" x="648" y="379" style="fill:black;" font-family="Arial" font-size="16px">nombre</text>
   <rect width="129" height="20" x="643" y="385" style="fill:none;stroke:black;"/>
   <text width="129" height="20" x="648" y="399" style="fill:black;" font-family="Arial" font-size="16px">apellido_paterno</text>
   <rect width="129" height="20" x="643" y="405" style="fill:none;stroke:black;"/>
   <text width="129" height="20" x="648" y="419" style="fill:black;" font-family="Arial" font-size="16px">apellido_materno</text>
   <rect width="143" height="20" x="83" y="39" style="fill:#007;stroke:black;"/>
   <text width="143" height="20" x="88" y="53" style="fill:#fff;" font-family="Arial" font-size="16px"> libro</text>
   <rect width="143" height="20" x="83" y="59" style="fill:none;stroke:black;"/>
   <text width="143" height="20" x="88" y="73" style="fill:black;" font-family="Arial" font-size="16px">codigo_libro</text>
   <rect width="143" height="20" x="83" y="79" style="fill:none;stroke:black;"/>
   <text width="143" height="20" x="88" y="93" style="fill:black;" font-family="Arial" font-size="16px">titulo</text>
   <rect width="143" height="20" x="83" y="99" style="fill:none;stroke:black;"/>
   <text width="143" height="20" x="88" y="113" style="fill:black;" font-family="Arial" font-size="16px">fecha_registro</text>
   <rect width="143" height="20" x="83" y="119" style="fill:none;stroke:black;"/>
   <text width="143" height="20" x="88" y="133" style="fill:black;" font-family="Arial" font-size="16px">fecha_modificacion</text>
   <rect width="99" height="20" x="216" y="520" style="fill:#007;stroke:black;"/>
   <text width="99" height="20" x="221" y="534" style="fill:#fff;" font-family="Arial" font-size="16px"> libro_autor</text>
   <rect width="99" height="20" x="216" y="540" style="fill:#aea;stroke:black;"/>
   <text width="99" height="20" x="221" y="554" style="fill:black;" font-family="Arial" font-size="16px">id</text>
   <rect width="99" height="20" x="216" y="560" style="fill:none;stroke:black;"/>
   <text width="99" height="20" x="221" y="574" style="fill:black;" font-family="Arial" font-size="16px">codigo_autor</text>
   <rect width="99" height="20" x="216" y="580" style="fill:none;stroke:black;"/>
   <text width="99" height="20" x="221" y="594" style="fill:black;" font-family="Arial" font-size="16px">codigo_libro</text>
   <rect width="119" height="20" x="662" y="88" style="fill:#007;stroke:black;"/>
   <text width="119" height="20" x="667" y="102" style="fill:#fff;" font-family="Arial" font-size="16px"> libro_editorial</text>
   <rect width="119" height="20" x="662" y="108" style="fill:none;stroke:black;"/>
   <text width="119" height="20" x="667" y="122" style="fill:black;" font-family="Arial" font-size="16px">codigo_libro</text>
   <rect width="119" height="20" x="662" y="128" style="fill:#aea;stroke:black;"/>
   <text width="119" height="20" x="667" y="142" style="fill:black;" font-family="Arial" font-size="16px">codigo_editorial</text>
   <rect width="131" height="20" x="276" y="195" style="fill:#007;stroke:black;"/>
   <text width="131" height="20" x="281" y="209" style="fill:#fff;" font-family="Arial" font-size="16px"> prestamos</text>
   <rect width="131" height="20" x="276" y="215" style="fill:none;stroke:black;"/>
   <text width="131" height="20" x="281" y="229" style="fill:black;" font-family="Arial" font-size="16px">codigo_libro</text>
   <rect width="131" height="20" x="276" y="235" style="fill:#aea;stroke:black;"/>
   <text width="131" height="20" x="281" y="249" style="fill:black;" font-family="Arial" font-size="16px">codigo_lector</text>
   <rect width="131" height="20" x="276" y="255" style="fill:none;stroke:black;"/>
   <text width="131" height="20" x="281" y="269" style="fill:black;" font-family="Arial" font-size="16px">fecha_devolucion</text>
</svg>
